<svg width="419" height="131" viewBox="0 0 419 131" fill="none" xmlns="http://www.w3.org/2000/svg">
    <path d="M0.351562 0.183594H28.4567V49.2333H80.1917V0.183594H108.297V127.999H80.1917V72.8632H28.4567V127.999H0.351562V0.183594Z" fill="#D4D4D4"/>
    <path d="M192.65 71.7891C191.457 65.3446 189.308 60.4515 186.206 57.1099C183.222 53.7684 178.627 52.0976 172.421 52.0976C168.364 52.0976 164.963 52.8136 162.218 54.2457C159.592 55.5585 157.444 57.2293 155.773 59.2581C154.222 61.2869 153.088 63.4351 152.372 65.7026C151.775 67.9701 151.417 69.9989 151.298 71.7891H192.65ZM151.298 87.9003C151.656 96.1349 153.744 102.102 157.563 105.802C161.382 109.501 166.872 111.351 174.033 111.351C179.164 111.351 183.58 110.098 187.28 107.592C190.979 104.966 193.247 102.221 194.082 99.3572H216.459C212.879 110.456 207.389 118.392 199.99 123.166C192.59 127.94 183.64 130.327 173.138 130.327C165.858 130.327 159.294 129.193 153.446 126.925C147.598 124.538 142.646 121.197 138.588 116.901C134.53 112.604 131.368 107.472 129.1 101.505C126.952 95.5382 125.878 88.9744 125.878 81.8138C125.878 74.892 127.012 68.4475 129.279 62.4804C131.547 56.5132 134.769 51.3815 138.946 47.0852C143.123 42.6695 148.076 39.2086 153.804 36.7024C159.652 34.1962 166.096 32.9431 173.138 32.9431C181.014 32.9431 187.876 34.4946 193.724 37.5975C199.572 40.581 204.346 44.6387 208.045 49.7704C211.864 54.9021 214.609 60.7499 216.28 67.3137C217.951 73.8776 218.547 80.7398 218.07 87.9003H151.298Z" fill="#D4D4D4"/>
    <path d="M233.862 0.183594H259.282V127.999H233.862V0.183594Z" fill="#D4D4D4"/>
    <path d="M280.014 0.183594H305.434V127.999H280.014V0.183594Z" fill="#D4D4D4"/>
    <path d="M322.586 81.8138C322.586 74.4146 323.72 67.7314 325.987 61.7643C328.255 55.6778 331.477 50.5461 335.654 46.3691C339.831 42.0728 344.843 38.7909 350.691 36.5234C356.539 34.1365 363.103 32.9431 370.383 32.9431C377.663 32.9431 384.226 34.1365 390.074 36.5234C396.041 38.7909 401.113 42.0728 405.29 46.3691C409.467 50.5461 412.69 55.6778 414.957 61.7643C417.225 67.7314 418.358 74.4146 418.358 81.8138C418.358 89.2131 417.225 95.8963 414.957 101.863C412.69 107.83 409.467 112.962 405.29 117.259C401.113 121.436 396.041 124.717 390.074 127.104C384.226 129.372 377.663 130.506 370.383 130.506C363.103 130.506 356.539 129.372 350.691 127.104C344.843 124.717 339.831 121.436 335.654 117.259C331.477 112.962 328.255 107.83 325.987 101.863C323.72 95.8963 322.586 89.2131 322.586 81.8138ZM348.006 81.8138C348.006 85.5135 348.364 89.1534 349.08 92.7337C349.796 96.1946 350.989 99.3572 352.66 102.221C354.45 104.966 356.778 107.174 359.642 108.845C362.506 110.516 366.086 111.351 370.383 111.351C374.679 111.351 378.259 110.516 381.123 108.845C384.107 107.174 386.434 104.966 388.105 102.221C389.895 99.3572 391.148 96.1946 391.864 92.7337C392.58 89.1534 392.938 85.5135 392.938 81.8138C392.938 78.1142 392.58 74.4743 391.864 70.894C391.148 67.3137 389.895 64.1512 388.105 61.4063C386.434 58.6614 384.107 56.4536 381.123 54.7828C378.259 52.9926 374.679 52.0976 370.383 52.0976C366.086 52.0976 362.506 52.9926 359.642 54.7828C356.778 56.4536 354.45 58.6614 352.66 61.4063C350.989 64.1512 349.796 67.3137 349.08 70.894C348.364 74.4743 348.006 78.1142 348.006 81.8138ZM339.055 3.76387H402.247V17.1899H339.055V3.76387Z" fill="#D4D4D4"/>
</svg>
